# xmcd CD database file
#
# Track frame offsets:
#	150
#	13254
#	25793
#	38286
#	50912
#	63786
#	78608
#	91124
#	105731
#	118922
#	132000
#	145483
#	159105
#	173744
#	187568
#	200013
#
# Disc length: 2858 seconds
#
# Revision: 0
# Processed by: cddbd v1.5.2PL0 Copyright (c) Steve Scherf et al.
# Submitted via: CDex 1.70beta2
#
DISCID=c90b2810
DTITLE=Cab Calloway - The Gold Collection [CD 1)
DYEAR=2004
DGENRE=Jazz
TTITLE0=Nagasaki
TTITLE1=Hoy Hoy
TTITLE2=Jumpin' Jive
TTITLE3=Fifteen Minutes Intermission
TTITLE4=A Chicken Ain't Nothing But a Bird
TTITLE5=St. James Infirmary
TTITLE6=I Want to Rock
TTITLE7=Minnie the Moocher
TTITLE8=Honey Dripper
TTITLE9=Hey Now-Hey Now
TTITLE10=Hi De Ho Man
TTITLE11=Oh Grandpa
TTITLE12=Jungle King
TTITLE13=The Calloway Boogie
TTITLE14=Everybody Eats When They Come to My House
TTITLE15=Two Blocks Down, Turn to the Left
EXTD=YEAR: 2004
EXTT0=
EXTT1=
EXTT2=
EXTT3=
EXTT4=
EXTT5=
EXTT6=
EXTT7=
EXTT8=
EXTT9=
EXTT10=
EXTT11=
EXTT12=
EXTT13=
EXTT14=
EXTT15=
PLAYORDER=
